<svg xmlns="http://www.w3.org/2000/svg" viewBox="0 0 1694.72 314.83"><g fill="#FCFCFC"><path d="M653.27 119.25l4.09-15.34H544.47l5.42-20.31h96.09c9.96 0 18.67-6.69 21.24-16.31l4.09-15.34H558.33l5.42-20.31h96.26c9.96 0 18.67-6.69 21.24-16.31L685.34 0H557.43a21.98 21.98 0 0 0-21.24 16.31l-31.82 119.25h127.65c9.97.01 18.68-6.69 21.25-16.31zM1566.81 0a21.98 21.98 0 0 0-21.24 16.31l-31.82 119.25h127.65c9.96 0 18.67-6.69 21.24-16.31l4.09-15.34h-112.89l5.42-20.31h96.09c9.96 0 18.67-6.69 21.24-16.31l4.09-15.34H1567.7l5.42-20.31h96.26c9.96 0 18.67-6.69 21.24-16.31l4.1-15.33h-127.91zM677.13 135.57c9.96 0 18.67-6.69 21.24-16.31l19.99-74.95 57.15 91.26h14.76c9.96 0 18.67-6.69 21.24-16.31L843.33 0h-14.76a21.98 21.98 0 0 0-21.24 16.31l-19.85 74.42L730.18 0h-14.76a21.98 21.98 0 0 0-21.24 16.31l-31.82 119.25h14.77zM998.48 123.33c6.44 8.16 15.81 12.24 28.12 12.24h88.09c9.96 0 18.67-6.69 21.24-16.31l17.95-67.3h-57.76a21.98 21.98 0 0 0-21.24 16.31l-4.09 15.34h42.99l-3.97 14.87a7.329 7.329 0 0 1-7.08 5.44h-67.69c-8.44 0-11.66-3.76-9.65-11.3l13.25-49.67c2.01-7.53 7.24-11.3 15.67-11.3h88.09c9.96 0 18.67-6.69 21.24-16.31L1167.75 0h-104.97c-12.31 0-23.86 4.08-34.65 12.24s-17.83 18.38-21.1 30.67l-13.27 49.75c-3.29 12.29-1.71 22.51 4.72 30.67zM1333.38 12.37C1328.45 4.13 1320.28 0 1308.85 0h-89.68c-11.25 0-21.54 4.13-30.86 12.37-9.32 8.25-15.51 18.08-18.55 29.48l-25 93.71h14.76c9.96 0 18.67-6.69 21.24-16.31l9.51-35.65h103.14l-13.87 51.96h14.76c9.96 0 18.67-6.69 21.24-16.31l20.65-77.4c3.05-11.4 2.11-21.23-2.81-29.48zm-28.86 29.56l-2.66 10.03h-103.14l2.68-10.05c1.82-6.84 4.93-10.26 9.33-10.26h89.68c4.57 0 5.94 3.43 4.11 10.28zM1513.07 0c-5.94 0-11.63 2.41-15.77 6.67l-69.55 71.67L1393.78 0h-16.35a21.98 21.98 0 0 0-21.24 16.31l-31.82 119.25h14.76c9.96 0 18.67-6.69 21.24-16.31l17.67-66.24 34.98 80.44 77.9-80.44-22.02 82.55h14.77c9.96 0 18.67-6.69 21.24-16.31L1536.74 0h-23.67zM859.54 51.96a21.98 21.98 0 0 0-21.24 16.31l-17.95 67.3h104.71c12.31 0 23.81-4.08 34.52-12.24 10.7-8.16 17.69-18.38 20.97-30.67l13.27-49.75c3.28-12.28 1.74-22.51-4.61-30.67C982.86 4.08 973.54 0 961.23 0H856.52l-8.44 31.65h104.94c8.11 0 11.16 3.76 9.15 11.3l-13.25 49.67c-2.01 7.53-7.07 11.3-15.18 11.3h-73.29l13.86-51.96h-14.77zM760.06 262.88c9.96 0 18.67-6.69 21.24-16.31l4.09-15.34H672.41l5.42-20.31h96.26c9.96 0 18.67-6.69 21.24-16.31l4.09-15.34H671.51a21.98 21.98 0 0 0-21.24 16.31l-31.82 119.25H746.1c9.96 0 18.67-6.69 21.24-16.31l4.09-15.34H658.55l5.42-20.31h96.09zM965.06 191.64c-4.92-8.24-13.1-12.37-24.52-12.37h-89.68c-11.25 0-21.54 4.13-30.86 12.37-9.32 8.25-15.51 18.08-18.55 29.48l-25 93.71h14.76c9.96 0 18.67-6.69 21.24-16.31l9.51-35.65H925.1l-13.87 51.96h14.76c9.96 0 18.67-6.69 21.24-16.31l20.65-77.4c3.04-11.4 2.1-21.23-2.82-29.48zM936.2 221.2l-2.66 10.03H830.4l2.68-10.05c1.82-6.84 4.93-10.26 9.33-10.26h89.68c4.57 0 5.94 3.43 4.11 10.28zM569.82 231.22a21.98 21.98 0 0 0-21.24 16.31l-4.09 15.34h42.99l-3.94 14.77a7.449 7.449 0 0 1-7.2 5.53h-67.6c-8.44 0-11.66-3.76-9.65-11.3l13.25-49.67c2.01-7.53 7.24-11.3 15.68-11.3h88.09c9.96 0 18.67-6.69 21.24-16.31l4.09-15.34H536.47c-12.31 0-23.87 4.08-34.66 12.24-10.79 8.16-17.83 18.38-21.1 30.67l-13.27 49.75c-3.28 12.28-1.7 22.51 4.74 30.67s15.82 12.24 28.13 12.24h88.09c9.96 0 18.67-6.69 21.24-16.31l17.95-67.3h-57.77zM1123.85 179.27H992.23l-36.17 135.57h31.65l27.72-103.92h98.12c5.8 0 7.94 2.82 5.67 10.9-2.27 8.08-7.65 9.4-13.44 9.4h-64.62a21.98 21.98 0 0 0-21.24 16.31l-4.09 15.33h28.26l32.54 51.96h43.26l-32.84-51.96h12.13c12.13 0 24.88.8 32.86-6.6 9.03-8.37 14.85-19.07 18.13-31.38 3.28-12.31 2.81-22.77-1.38-31.39-4.5-9.47-12.82-14.22-24.94-14.22z"/></g><g fill="#FDC415"><path d="M434.38 78.71H63.27l7.44-27.77C78.76 20.89 105.99 0 137.09 0h318.38l-21.09 78.71zM339.48 118.06l-27.54 102.78a20.623 20.623 0 0 1-19.92 15.28H105.45l6.45-24.07a20.623 20.623 0 0 1 19.92-15.28h128.57c9.33 0 17.5-6.27 19.92-15.28l17-63.43H105.46c-31.11 0-58.33 20.89-66.38 50.94L0 314.83h318.38c31.11 0 58.33-20.89 66.38-50.94l39.08-145.83h-84.36z"/></g></svg>
