<svg xmlns="http://www.w3.org/2000/svg" viewBox="0 0 200 33"><g fill="#FFF"><path d="M35.8 9.6h2.1v2.9c.8-1.1 1.7-1.9 2.7-2.5 1-.5 2.1-.8 3.3-.8 1.2 0 2.3.3 3.2.9.9.6 1.6 1.4 2.1 2.5.4 1 .7 2.6.7 4.8v8.3h-2.1V18c0-1.8-.1-3.1-.2-3.7-.2-1.1-.7-1.9-1.4-2.4s-1.6-.8-2.7-.8c-1.2 0-2.4.4-3.4 1.2-1 .8-1.6 1.8-2 3.1-.2.8-.3 2.3-.3 4.4v5.9h-2.1V9.6zM61.2 9.2c2.5 0 4.5.9 6.1 2.7 1.5 1.6 2.2 3.6 2.2 5.8 0 2.2-.8 4.2-2.3 5.9-1.6 1.7-3.6 2.5-6 2.5-2.5 0-4.5-.8-6-2.5-1.6-1.7-2.3-3.6-2.3-5.9 0-2.2.7-4.1 2.2-5.8 1.5-1.8 3.6-2.7 6.1-2.7zm0 2c-1.7 0-3.2.6-4.4 1.9-1.2 1.3-1.8 2.8-1.8 4.6 0 1.2.3 2.2.8 3.2.6 1 1.3 1.8 2.3 2.3 1 .5 2 .8 3.2.8 1.1 0 2.2-.3 3.2-.8s1.7-1.3 2.3-2.3c.6-1 .8-2.1.8-3.2 0-1.8-.6-3.3-1.9-4.6-1.4-1.3-2.8-1.9-4.5-1.9zM72.8 25.6V3.4h2.1v8.9c.9-1.1 1.8-1.9 2.9-2.4 1.1-.5 2.2-.8 3.5-.8 2.3 0 4.2.8 5.8 2.5 1.6 1.6 2.4 3.6 2.4 6 0 2.3-.8 4.3-2.4 5.9-1.6 1.6-3.6 2.5-5.8 2.5-1.3 0-2.5-.3-3.5-.8-1.1-.6-2-1.4-2.8-2.5v2.9h-2.2zM81 24c1.1 0 2.2-.3 3.2-.8 1-.6 1.7-1.4 2.3-2.4.6-1 .9-2.1.9-3.2s-.3-2.2-.9-3.3c-.6-1-1.4-1.8-2.3-2.4-1-.6-2-.9-3.1-.9s-2.2.3-3.2.9c-1 .6-1.8 1.3-2.3 2.3-.5 1-.8 2.1-.8 3.3 0 1.9.6 3.4 1.8 4.7 1.1 1.2 2.7 1.8 4.4 1.8zM92.8 3.4h2.1v22.2h-2.1V3.4zM112.3 20.3l1.7.9c-.6 1.1-1.2 2-2 2.7-.7.7-1.6 1.2-2.5 1.6-.9.4-2 .5-3.2.5-2.6 0-4.7-.9-6.1-2.6-1.5-1.7-2.2-3.7-2.2-5.8 0-2 .6-3.8 1.9-5.4 1.6-2 3.7-3 6.4-3s4.9 1 6.5 3.1c1.2 1.5 1.8 3.3 1.8 5.5h-14.4c0 1.9.6 3.4 1.8 4.6s2.6 1.8 4.3 1.8c.8 0 1.6-.1 2.4-.4.8-.3 1.4-.7 2-1.1.4-.6 1-1.4 1.6-2.4zm0-4.3c-.3-1.1-.7-2-1.2-2.6-.5-.7-1.2-1.2-2.1-1.6-.9-.4-1.8-.6-2.7-.6-1.6 0-2.9.5-4.1 1.5-.8.7-1.5 1.8-1.9 3.3h12zM133.4 12.9l-1.6 1c-1.4-1.9-3.3-2.8-5.8-2.8-2 0-3.6.6-4.9 1.9-1.3 1.3-1.9 2.8-1.9 4.6 0 1.2.3 2.3.9 3.3.6 1 1.4 1.8 2.4 2.4 1 .6 2.2.9 3.5.9 2.4 0 4.3-.9 5.8-2.8l1.6 1.1c-.8 1.2-1.8 2-3.1 2.7-1.3.6-2.8 1-4.4 1-2.5 0-4.6-.8-6.3-2.4-1.7-1.6-2.5-3.6-2.5-5.9 0-1.6.4-3 1.2-4.3.8-1.3 1.9-2.4 3.2-3.1 1.4-.7 2.9-1.1 4.6-1.1 1.1 0 2.1.2 3.1.5s1.8.7 2.5 1.3c.6.2 1.2.9 1.7 1.7zM136.3 3.4h2.1v9.1c.8-1.1 1.8-1.9 2.8-2.5 1-.5 2.1-.8 3.3-.8 1.2 0 2.3.3 3.2.9.9.6 1.6 1.4 2.1 2.5.4 1 .7 2.6.7 4.8v8.3h-2.1V18c0-1.8-.1-3.1-.2-3.7-.3-1.1-.7-1.9-1.4-2.4s-1.6-.8-2.6-.8c-1.2 0-2.4.4-3.4 1.2-1 .8-1.6 1.8-2 3.1-.2.8-.3 2.2-.3 4.4v5.9h-2.1V3.4zM170.1 9.6v16h-2v-2.8c-.9 1.1-1.8 1.8-2.9 2.4-1.1.5-2.3.8-3.5.8-2.3 0-4.2-.8-5.8-2.5-1.6-1.6-2.4-3.6-2.4-6 0-2.3.8-4.3 2.4-5.9 1.6-1.6 3.6-2.5 5.9-2.5 1.3 0 2.5.3 3.6.8 1.1.6 2 1.4 2.8 2.5V9.6h1.9zm-8.2 1.5c-1.1 0-2.2.3-3.2.8-1 .6-1.7 1.4-2.3 2.4-.6 1-.9 2.1-.9 3.2s.3 2.2.9 3.2c.6 1 1.4 1.8 2.3 2.4 1 .6 2 .9 3.1.9s2.2-.3 3.2-.9c1-.6 1.8-1.3 2.3-2.3.5-1 .8-2.1.8-3.3 0-1.9-.6-3.4-1.8-4.7-1.1-1-2.6-1.7-4.4-1.7zM175.9 3c.5 0 .9.2 1.2.5.3.3.5.7.5 1.2s-.2.9-.5 1.2c-.3.3-.7.5-1.2.5s-.9-.2-1.2-.5c-.3-.3-.5-.7-.5-1.2s.2-.9.5-1.2c.3-.4.7-.5 1.2-.5zm-1.1 6.6h2.1v16h-2.1v-16zM181.2 9.6h2.1v2.3c.6-.9 1.3-1.6 2-2.1s1.4-.7 2.2-.7c.6 0 1.2.2 1.8.5l-1.1 1.7c-.4-.2-.8-.3-1.1-.3-.7 0-1.4.3-2 .8-.6.6-1.1 1.4-1.5 2.6-.3.9-.4 2.8-.4 5.5v5.4h-2.1V9.6zM200 11.3l-1.3 1.4c-1.1-1.1-2.2-1.6-3.2-1.6-.7 0-1.2.2-1.7.7-.5.4-.7 1-.7 1.5s.2 1 .6 1.5c.4.5 1.2 1 2.5 1.7 1.5.8 2.6 1.6 3.1 2.3.5.7.8 1.6.8 2.5 0 1.3-.5 2.4-1.4 3.3-.9.9-2.1 1.4-3.5 1.4-.9 0-1.8-.2-2.6-.6-.8-.4-1.5-1-2.1-1.7l1.3-1.5c1.1 1.2 2.2 1.8 3.4 1.8.8 0 1.5-.3 2.1-.8.6-.5.9-1.2.9-1.9 0-.6-.2-1.1-.6-1.6-.4-.5-1.3-1-2.6-1.7-1.4-.7-2.4-1.5-3-2.2-.5-.7-.8-1.6-.8-2.5 0-1.2.4-2.2 1.2-3 .8-.8 1.9-1.2 3.2-1.2 1.4.1 2.9.8 4.4 2.2z"/></g><g fill="#FFF"><path d="M24 10.6c-.4 0-.7.3-.7.7 0 .2.1.3.2.5-.8.6-2.4 1.1-3.1.2-.6-.7-.6-1.4-.6-1.9h.2c.4 0 .7-.3.7-.7 0-.4-.3-.7-.7-.7-.4 0-.7.3-.7.7 0 .2.1.5.3.6-1.1 1-2.8 1.3-3.9.2-.8-.7-1.1-1.6-1.2-2.2.5 0 .8-.4.8-.8s-.3-.8-.8-.8c-.4 0-.8.3-.8.8 0 .4.3.7.6.8-.8 2.2-1.4 2.7-2.9 2.8-1.3.2-2-.6-2.2-.8.2-.1.4-.3.4-.6 0-.4-.3-.7-.7-.7-.4 0-.7.3-.7.6 0 .4.3.7.7.7H9c-.1 1.8-1 2.1-1.6 2.3-.6.2-2-.5-2-.5.2-.1.3-.3.3-.5 0-.3-.3-.6-.6-.6s-.6.3-.6.6.3.6.6.6h.2s.3.6.6 1.4c1.9.1 2.8-.4 3.5-1.8 1.8.9 3.5.5 4.9-1.2 1.2 1.7 3.6 1.8 4.9.9.4 1.5 2.1 1.7 2.1 1.7s-.5 1.3-.8 2.2c-.5-.4-4.1-.9-5.7-.9-1.6 0-7.6.3-7.4 2.5.2 3.5 10.9 2.3 10.9 2.3l-.2-.5s-3.5.1-4.4.1c-.9 0-5.1-.5-5.3-1.6-.2-1 3.7-1.5 5.5-1.6 1.8-.1 5.5.2 7.2.8.9.4 1.1-.3 1.1-.3l1.9-4.2h.2c.4 0 .7-.3.7-.7-.3-.1-.6-.4-1-.4z"/><path d="M15.6 1.4c4 .1 8 .8 11.7 2.2-.2 5.8-.5 10-.9 13.2-.5 3.4-1.2 5.8-2.1 7.5-.9 1.5-2 2.6-3.7 3.6-1.6.9-3.7 1.6-6.3 2.5-2.6-.9-4.6-1.6-6.2-2.5-1.7-.9-2.8-2-3.7-3.6-1-1.7-1.7-4.1-2.1-7.5-.5-3.2-.8-7.4-1-13.2C5.4 2.2 9.6 1.4 14 1.4h1.6M14.7.1H14C9.8.1 5 .8 0 2.7.7 27.3 3.5 28 14.3 31.8 25.2 28.1 28 27.3 28.7 2.7 23.6.7 18.8.1 14.7.1z"/></g></svg>